<svg width="507" height="512" viewBox="0 0 507 512" fill="none" xmlns="http://www.w3.org/2000/svg">
<ellipse cx="253.5" cy="256" rx="253.5" ry="256" fill="white"/>
<rect x="104.948" y="104.599" width="151.505" height="36.9307" fill="black"/>
<rect x="141.526" y="363.11" width="255.991" height="36.9307" fill="black"/>
<rect x="104.947" y="141.536" width="36.5701" height="258.516" fill="black"/>
<rect x="293.027" y="104.599" width="36.5701" height="121.344" fill="black"/>
<rect x="329.595" y="141.536" width="31.3458" height="52.7583" fill="black"/>
<rect x="360.935" y="104.599" width="36.5701" height="121.344" fill="black"/>
<ellipse cx="345.268" cy="141.526" rx="15.6729" ry="15.8275" fill="white"/>
<ellipse cx="345.268" cy="194.284" rx="15.6729" ry="15.8275" fill="white"/>
<ellipse cx="303.472" cy="283.979" rx="41.7945" ry="42.2067" fill="black"/>
<rect x="261.678" y="283.973" width="20.8973" height="79.1374" fill="black"/>
<rect x="324.376" y="283.973" width="20.8973" height="79.1374" fill="black"/>
<ellipse cx="303.473" cy="283.973" rx="26.1215" ry="26.3791" fill="#FF0000"/>
<path d="M345.267 365.754C345.267 353.86 340.863 342.454 333.025 334.044C325.187 325.634 314.557 320.909 303.472 320.909C292.388 320.909 281.757 325.634 273.919 334.044C266.081 342.454 261.678 353.86 261.678 365.754L303.472 365.754H345.267Z" fill="black"/>
<path d="M319.143 347.288C319.143 345.209 318.738 343.151 317.95 341.231C317.163 339.311 316.008 337.566 314.553 336.096C313.097 334.627 311.37 333.461 309.468 332.665C307.567 331.87 305.529 331.46 303.47 331.46C301.412 331.46 299.374 331.87 297.473 332.665C295.571 333.461 293.843 334.627 292.388 336.096C290.933 337.566 289.778 339.311 288.99 341.231C288.203 343.151 287.797 345.209 287.797 347.288L303.47 347.288H319.143Z" fill="white"/>
<rect x="287.797" y="347.289" width="31.3458" height="15.8275" fill="white"/>
<path d="M281.246 320.991C281.246 321.856 281.109 322.866 281.29 323.708C281.401 324.23 281.841 324.81 281.841 325.301C281.841 326.714 284.585 324.383 285.007 323.887C285.275 323.57 285.177 323.067 285.514 322.795C286.131 322.297 285.782 322.669 286.407 323.04C287.131 323.47 287.863 324.6 288.789 324.6" stroke="black" stroke-width="6" stroke-linecap="round"/>
<path d="M316.981 322.395C318.318 323.166 319.046 324.558 320.168 325.502C320.757 325.998 321.705 323.186 321.745 322.64C321.809 321.776 322.367 321.223 322.528 320.49C322.685 319.78 323.585 320.8 323.83 321.103C324.228 321.594 324.525 322.587 324.525 323.197C324.525 323.601 324.699 324.602 324.414 324.89C324.077 325.231 323.929 325.706 323.929 326.204" stroke="black" stroke-width="6" stroke-linecap="round"/>
<ellipse cx="212.047" cy="306.72" rx="39.1823" ry="39.5687" fill="black"/>
<path d="M256.46 364.754C256.46 352.86 251.781 341.454 243.453 333.044C235.125 324.634 223.83 319.909 212.053 319.909C200.276 319.909 188.981 324.634 180.653 333.044C172.325 341.454 167.646 352.86 167.646 364.754L212.053 364.754H256.46Z" fill="black"/>
<path d="M188.539 272.432L209.436 272.432" stroke="black" stroke-width="11" stroke-linecap="square"/>
<path d="M225.114 356.839C225.114 354.761 224.708 352.702 223.921 350.782C223.133 348.862 221.979 347.117 220.523 345.647C219.068 344.178 217.34 343.012 215.439 342.216C213.537 341.421 211.499 341.012 209.441 341.012C207.383 341.012 205.345 341.421 203.443 342.216C201.542 343.012 199.814 344.178 198.359 345.647C196.903 347.117 195.749 348.862 194.961 350.782C194.173 352.702 193.768 354.761 193.768 356.839L209.441 356.839H225.114Z" fill="white"/>
<ellipse cx="209.441" cy="304.081" rx="15.6729" ry="15.8275" fill="white"/>
<rect x="168" y="267" width="26" height="95" fill="black"/>
<rect x="355.716" y="247.052" width="15.6729" height="105.517" fill="black"/>
<rect x="381.838" y="247.052" width="15.6729" height="58.0341" fill="black"/>
<rect x="371.392" y="247.052" width="10.4486" height="15.8275" fill="black"/>
<rect x="381.838" y="315.633" width="15.6729" height="36.9307" fill="black"/>
<rect x="371.392" y="336.731" width="10.4486" height="15.8275" fill="black"/>
<rect x="376.619" y="315.633" width="5.22431" height="10.5517" fill="black"/>
<ellipse cx="204.21" cy="204.84" rx="47.0188" ry="47.4825" fill="#FF0000"/>
<rect x="157.191" y="183.737" width="94.0375" height="10.5517" fill="#FFD600"/>
<rect x="193.768" y="183.737" width="20.8973" height="42.2067" fill="#FFD600"/>
<rect x="157.191" y="215.393" width="94.0375" height="10.5517" fill="#FFD600"/>
<path d="M261.679 204.841C261.679 236.892 235.95 262.875 204.211 262.875C172.473 262.875 146.744 236.892 146.744 204.841C146.744 172.789 172.473 146.806 204.211 146.806C235.95 146.806 261.679 172.789 261.679 204.841ZM157.937 204.841C157.937 230.649 178.655 251.571 204.211 251.571C229.768 251.571 250.485 230.649 250.485 204.841C250.485 179.032 229.768 158.11 204.211 158.11C178.655 158.11 157.937 179.032 157.937 204.841Z" fill="white"/>
<rect x="188.539" y="194.294" width="5.22431" height="5.27584" fill="#FFD600"/>
<path d="M193.762 199.57C193.762 198.877 193.627 198.191 193.364 197.551C193.101 196.911 192.717 196.329 192.232 195.839C191.746 195.349 191.17 194.961 190.537 194.695C189.903 194.43 189.223 194.294 188.537 194.294V199.57H193.762Z" fill="#FF0000"/>
<rect x="193.768" y="210.116" width="5.27584" height="5.22431" transform="rotate(90 193.768 210.116)" fill="#FFD600"/>
<path d="M188.544 215.387C189.23 215.387 189.909 215.251 190.543 214.986C191.177 214.721 191.753 214.332 192.238 213.842C192.723 213.352 193.108 212.771 193.371 212.131C193.633 211.49 193.768 210.804 193.768 210.112H188.544V215.387Z" fill="#FF0000"/>
<rect x="219.89" y="215.393" width="5.22431" height="5.27584" transform="rotate(180 219.89 215.393)" fill="#FFD600"/>
<path d="M214.661 210.117C214.661 210.81 214.796 211.496 215.058 212.136C215.321 212.776 215.706 213.358 216.191 213.848C216.676 214.338 217.252 214.726 217.886 214.991C218.519 215.257 219.199 215.393 219.885 215.393V210.117H214.661Z" fill="#FF0000"/>
<rect x="214.661" y="199.556" width="5.27584" height="5.22431" transform="rotate(-90 214.661 199.556)" fill="#FFD600"/>
<path d="M219.885 194.283C219.199 194.283 218.52 194.42 217.886 194.685C217.252 194.95 216.676 195.338 216.191 195.828C215.706 196.318 215.321 196.9 215.059 197.54C214.796 198.18 214.661 198.866 214.661 199.559H219.885V194.283Z" fill="#FF0000"/>
</svg>
